{
  "accessors": [
    {
      "bufferView": 1,
      "componentType": 5126,
      "count": 2591,
      "max": [
        0.9516500234603882,
        0.9538300037384033,
        0.2084999978542328
      ],
      "min": [
        -0.9516500234603882,
        -0.9566299915313721,
        -0.208529993891716
      ],
      "type": "VEC3"
    },
    {
      "bufferView": 1,
      "byteOffset": 31092,
      "componentType": 5126,
      "count": 2591,
      "max": [
        1.0,
        1.0,
        0.9994717240333557
      ],
      "min": [
        -1.0,
        -0.9999105930328369,
        -0.9994717240333557
      ],
      "type": "VEC3"
    },
    {
      "bufferView": 0,
      "componentType": 5125,
      "count": 14592,
      "type": "SCALAR"
    },
    {
      "bufferView": 1,
      "byteOffset": 62184,
      "componentType": 5126,
      "count": 5361,
      "max": [
        0.9872599840164185,
        0.9905499815940857,
        0.9977399706840515
      ],
      "min": [
        -0.9872599840164185,
        -0.9719200134277344,
        0.042419999837875366
      ],
      "type": "VEC3"
    },
    {
      "bufferView": 1,
      "byteOffset": 126516,
      "componentType": 5126,
      "count": 5361,
      "max": [
        0.9996376037597656,
        0.9999592900276184,
        1.0
      ],
      "min": [
        -0.9996376037597656,
        -0.9981598258018494,
        -0.9994717240333557
      ],
      "type": "VEC3"
    },
    {
      "bufferView": 0,
      "byteOffset": 58368,
      "componentType": 5125,
      "count": 31728,
      "type": "SCALAR"
    },
    {
      "bufferView": 1,
      "byteOffset": 190848,
      "componentType": 5126,
      "count": 5361,
      "max": [
        0.9865800142288208,
        0.9898499846458435,
        -0.04244999960064888
      ],
      "min": [
        -0.9865800142288208,
        -0.9709200263023376,
        -0.9977399706840515
      ],
      "type": "VEC3"
    },
    {
      "bufferView": 1,
      "byteOffset": 255180,
      "componentType": 5126,
      "count": 5361,
      "max": [
        0.9988279938697815,
        0.9988673329353333,
        0.9994717240333557
      ],
      "min": [
        -0.9988279938697815,
        -0.9943011403083801,
        -1.0
      ],
      "type": "VEC3"
    },
    {
      "bufferView": 0,
      "byteOffset": 185280,
      "componentType": 5125,
      "count": 31728,
      "type": "SCALAR"
    },
    {
      "bufferView": 1,
      "byteOffset": 319512,
      "componentType": 5126,
      "count": 1009,
      "max": [
        0.147489994764328,
        -0.9523199796676636,
        0.14094999432563782
      ],
      "min": [
        -0.1474599987268448,
        -1.0039700269699097,
        -0.14094999432563782
      ],
      "type": "VEC3"
    },
    {
      "bufferView": 1,
      "byteOffset": 331620,
      "componentType": 5126,
      "count": 1009,
      "max": [
        1.0,
        0.00024000719713512808,
        1.0
      ],
      "min": [
        -1.0,
        -1.0,
        -1.0
      ],
      "type": "VEC3"
    },
    {
      "bufferView": 0,
      "byteOffset": 312192,
      "componentType": 5125,
      "count": 5760,
      "type": "SCALAR"
    },
    {
      "bufferView": 1,
      "byteOffset": 343728,
      "componentType": 5126,
      "count": 4,
      "max": [
        1.0,
        1.0,
        0.0
      ],
      "min": [
        -1.0,
        -1.0,
        0.0
      ],
      "type": "VEC3"
    },
    {
      "bufferView": 1,
      "byteOffset": 343776,
      "componentType": 5126,
      "count": 4,
      "max": [
        0.0,
        0.0,
        1.0
      ],
      "min": [
        0.0,
        0.0,
        1.0
      ],
      "type": "VEC3"
    },
    {
      "bufferView": 0,
      "byteOffset": 335232,
      "componentType": 5125,
      "count": 6,
      "type": "SCALAR"
    },
    {
      "bufferView": 1,
      "byteOffset": 343824,
      "componentType": 5126,
      "count": 2463,
      "max": [
        0.9516500234603882,
        0.9538300037384033,
        0.2084999978542328
      ],
      "min": [
        -0.9516500234603882,
        -0.9462599754333496,
        -0.208529993891716
      ],
      "type": "VEC3"
    },
    {
      "bufferView": 1,
      "byteOffset": 373380,
      "componentType": 5126,
      "count": 2463,
      "max": [
        1.0,
        1.0,
        0.9994717240333557
      ],
      "min": [
        -1.0,
        -0.9999105930328369,
        -0.9994717240333557
      ],
      "type": "VEC3"
    },
    {
      "bufferView": 0,
      "byteOffset": 335256,
      "componentType": 5125,
      "count": 13824,
      "type": "SCALAR"
    },
    {
      "bufferView": 1,
      "byteOffset": 402936,
      "componentType": 5126,
      "count": 11859,
      "max": [
        0.9872599840164185,
        0.9905499815940857,
        0.9977399706840515
      ],
      "min": [
        -0.9872599840164185,
        -1.0039700269699097,
        -0.9977399706840515
      ],
      "type": "VEC3"
    },
    {
      "bufferView": 1,
      "byteOffset": 545244,
      "componentType": 5126,
      "count": 11859,
      "max": [
        1.0,
        0.9999592900276184,
        1.0
      ],
      "min": [
        -1.0,
        -1.0,
        -1.0
      ],
      "type": "VEC3"
    },
    {
      "bufferView": 0,
      "byteOffset": 390552,
      "componentType": 5125,
      "count": 69984,
      "type": "SCALAR"
    },
    {
      "bufferView": 1,
      "byteOffset": 687552,
      "componentType": 5126,
      "count": 9770,
      "max": [
        0.9872599840164185,
        0.9905499815940857,
        0.9977399706840515
      ],
      "min": [
        -0.9872599840164185,
        -0.9719200134277344,
        -0.9977399706840515
      ],
      "type": "VEC3"
    },
    {
      "bufferView": 1,
      "byteOffset": 804792,
      "componentType": 5126,
      "count": 9770,
      "max": [
        0.9996376037597656,
        0.9999592900276184,
        1.0
      ],
      "min": [
        -0.9996376037597656,
        -0.9981598258018494,
        -1.0
      ],
      "type": "VEC3"
    },
    {
      "bufferView": 0,
      "byteOffset": 670488,
      "componentType": 5125,
      "count": 56928,
      "type": "SCALAR"
    },
    {
      "bufferView": 1,
      "byteOffset": 922032,
      "componentType": 5126,
      "count": 1224,
      "max": [
        0.6358799934387207,
        0.6356599926948547,
        0.8869600296020508
      ],
      "min": [
        -0.6358799934387207,
        -0.6384900212287903,
        0.7619600296020508
      ],
      "type": "VEC3"
    },
    {
      "bufferView": 1,
      "byteOffset": 936720,
      "componentType": 5126,
      "count": 1224,
      "max": [
        0.6366711258888245,
        0.6358659863471985,
        0.8820094466209412
      ],
      "min": [
        -0.6366711258888245,
        -0.6341860294342041,
        0.7711233496665955
      ],
      "type": "VEC3"
    },
    {
      "bufferView": 0,
      "byteOffset": 898200,
      "componentType": 5125,
      "count": 6528,
      "type": "SCALAR"
    },
    {
      "bufferView": 1,
      "byteOffset": 951408,
      "componentType": 5126,
      "count": 3568,
      "max": [
        0.9516500234603882,
        0.9538300037384033,
        0.2084999978542328
      ],
      "min": [
        -0.9516500234603882,
        -1.0039700269699097,
        -0.208529993891716
      ],
      "type": "VEC3"
    },
    {
      "bufferView": 1,
      "byteOffset": 994224,
      "componentType": 5126,
      "count": 3568,
      "max": [
        1.0,
        1.0,
        1.0
      ],
      "min": [
        -1.0,
        -1.0,
        -1.0
      ],
      "type": "VEC3"
    },
    {
      "bufferView": 0,
      "byteOffset": 924312,
      "componentType": 5125,
      "count": 20352,
      "type": "SCALAR"
    },
    {
      "bufferView": 1,
      "byteOffset": 1037040,
      "componentType": 5126,
      "count": 1360,
      "max": [
        0.7123000025749207,
        0.712119996547699,
        0.9276599884033203
      ],
      "min": [
        -0.7123000025749207,
        -0.7153000235557556,
        0.6912099719047546
      ],
      "type": "VEC3"
    },
    {
      "bufferView": 1,
      "byteOffset": 1053360,
      "componentType": 5126,
      "count": 1360,
      "max": [
        0.7357233762741089,
        0.7351242303848267,
        0.9399828910827637
      ],
      "min": [
        -0.7357233762741089,
        -0.7335240244865417,
        0.677273690700531
      ],
      "type": "VEC3"
    },
    {
      "bufferView": 0,
      "byteOffset": 1005720,
      "componentType": 5125,
      "count": 6528,
      "type": "SCALAR"
    }
  ],
  "asset": {
    "extras": {
      "author": "denis98 (https://sketchfab.com/denis98)",
      "license": "CC-BY-4.0 (http://creativecommons.org/licenses/by/4.0/)",
      "source": "https://sketchfab.com/3d-models/pokeballs-9ed22659c17542a28d788ede647a46cf",
      "title": "Pokeballs"
    },
    "generator": "Sketchfab-12.68.0",
    "version": "2.0"
  },
  "bufferViews": [
    {
      "buffer": 0,
      "byteLength": 1031832,
      "name": "floatBufferViews",
      "target": 34963
    },
    {
      "buffer": 0,
      "byteLength": 1069680,
      "byteOffset": 1031832,
      "byteStride": 12,
      "name": "floatBufferViews",
      "target": 34962
    }
  ],
  "buffers": [
    {
      "byteLength": 2101512,
      "uri": "scene.bin"
    }
  ],
  "materials": [
    {
      "doubleSided": true,
      "name": "black",
      "pbrMetallicRoughness": {
        "baseColorFactor": [
          0.0,
          0.0,
          0.0,
          1.0
        ],
        "metallicFactor": 0.0,
        "roughnessFactor": 0.6
      }
    },
    {
      "doubleSided": true,
      "name": "Material.001",
      "pbrMetallicRoughness": {
        "baseColorFactor": [
          0.8000000119209291,
          0.0,
          0.007463950029967922,
          1.0
        ],
        "metallicFactor": 0.0,
        "roughnessFactor": 0.6
      }
    },
    {
      "doubleSided": true,
      "name": "Gold",
      "pbrMetallicRoughness": {
        "baseColorFactor": [
          0.6400000667572026,
          0.31067295537401657,
          0.0,
          1.0
        ],
        "metallicFactor": 0.0,
        "roughnessFactor": 0.6
      }
    },
    {
      "doubleSided": true,
      "name": "Yellow",
      "pbrMetallicRoughness": {
        "baseColorFactor": [
          0.6400000667572026,
          0.4914021088391853,
          0.0,
          1.0
        ],
        "metallicFactor": 0.0,
        "roughnessFactor": 0.6
      }
    },
    {
      "doubleSided": true,
      "name": "White",
      "pbrMetallicRoughness": {
        "baseColorFactor": [
          0.8000000119209291,
          0.8000000119209291,
          0.8000000119209291,
          1.0
        ],
        "metallicFactor": 0.0,
        "roughnessFactor": 0.6
      }
    },
    {
      "doubleSided": true,
      "name": "Material.002",
      "pbrMetallicRoughness": {
        "baseColorFactor": [
          0.6400000190734867,
          0.6400000190734867,
          0.6400000190734867,
          1.0
        ],
        "metallicFactor": 0.0,
        "roughnessFactor": 0.6
      }
    },
    {
      "doubleSided": true,
      "name": "silver",
      "pbrMetallicRoughness": {
        "baseColorFactor": [
          0.4305803839948829,
          0.4305803839948829,
          0.4305803839948829,
          1.0
        ],
        "metallicFactor": 0.0,
        "roughnessFactor": 0.6
      }
    }
  ],
  "meshes": [
    {
      "name": "Pokeball",
      "primitives": [
        {
          "attributes": {
            "NORMAL": 1,
            "POSITION": 0
          },
          "indices": 2,
          "material": 0,
          "mode": 4
        }
      ]
    },
    {
      "name": "Pokeball",
      "primitives": [
        {
          "attributes": {
            "NORMAL": 4,
            "POSITION": 3
          },
          "indices": 5,
          "material": 1,
          "mode": 4
        }
      ]
    },
    {
      "name": "Pokeball",
      "primitives": [
        {
          "attributes": {
            "NORMAL": 7,
            "POSITION": 6
          },
          "indices": 8,
          "material": 4,
          "mode": 4
        }
      ]
    },
    {
      "name": "Pokeball",
      "primitives": [
        {
          "attributes": {
            "NORMAL": 10,
            "POSITION": 9
          },
          "indices": 11,
          "material": 6,
          "mode": 4
        }
      ]
    },
    {
      "name": "Plane",
      "primitives": [
        {
          "attributes": {
            "NORMAL": 13,
            "POSITION": 12
          },
          "indices": 14,
          "material": 5,
          "mode": 4
        }
      ]
    },
    {
      "name": "Premier Ball",
      "primitives": [
        {
          "attributes": {
            "NORMAL": 16,
            "POSITION": 15
          },
          "indices": 17,
          "material": 1,
          "mode": 4
        }
      ]
    },
    {
      "name": "Premier Ball",
      "primitives": [
        {
          "attributes": {
            "NORMAL": 19,
            "POSITION": 18
          },
          "indices": 20,
          "material": 4,
          "mode": 4
        }
      ]
    },
    {
      "name": "Luxuryball",
      "primitives": [
        {
          "attributes": {
            "NORMAL": 22,
            "POSITION": 21
          },
          "indices": 23,
          "material": 0,
          "mode": 4
        }
      ]
    },
    {
      "name": "Luxuryball",
      "primitives": [
        {
          "attributes": {
            "NORMAL": 25,
            "POSITION": 24
          },
          "indices": 26,
          "material": 1,
          "mode": 4
        }
      ]
    },
    {
      "name": "Luxuryball",
      "primitives": [
        {
          "attributes": {
            "NORMAL": 28,
            "POSITION": 27
          },
          "indices": 29,
          "material": 2,
          "mode": 4
        }
      ]
    },
    {
      "name": "Luxuryball",
      "primitives": [
        {
          "attributes": {
            "NORMAL": 31,
            "POSITION": 30
          },
          "indices": 32,
          "material": 3,
          "mode": 4
        }
      ]
    }
  ],
  "nodes": [
    {
      "children": [
        1
      ],
      "matrix": [
        1.0,
        0.0,
        0.0,
        0.0,
        0.0,
        2.220446049250313e-16,
        -1.0,
        0.0,
        0.0,
        1.0,
        2.220446049250313e-16,
        0.0,
        0.0,
        0.0,
        0.0,
        1.0
      ],
      "name": "Sketchfab_model"
    },
    {
      "children": [
        2,
        7,
        9,
        12,
        14,
        16,
        18
      ],
      "name": "Root"
    },
    {
      "children": [
        3,
        4,
        5,
        6
      ],
      "matrix": [
        0.14195000000000002,
        0.6188700000000001,
        -0.15080000000000002,
        0.0,
        -0.6164900000000001,
        0.09460000000000003,
        -0.19206000000000004,
        0.0,
        -0.16028000000000003,
        0.18423000000000003,
        0.6052000000000001,
        0.0,
        0.7445,
        -0.18331000000000003,
        0.6487200000000002,
        1.0
      ],
      "name": "Pokeball"
    },
    {
      "mesh": 0,
      "name": "Pokeball"
    },
    {
      "mesh": 1,
      "name": "Pokeball"
    },
    {
      "mesh": 2,
      "name": "Pokeball"
    },
    {
      "mesh": 3,
      "name": "Pokeball"
    },
    {
      "children": [
        8
      ],
      "matrix": [
        17.763789999999997,
        0.0,
        0.0,
        0.0,
        0.0,
        17.763789999999997,
        0.0,
        0.0,
        0.0,
        0.0,
        17.763789999999997,
        0.0,
        0.0,
        0.0,
        0.0,
        1.0
      ],
      "name": "Plane"
    },
    {
      "mesh": 4,
      "name": "Plane"
    },
    {
      "children": [
        10,
        11
      ],
      "matrix": [
        0.4419600000000001,
        0.30615000000000003,
        0.36991000000000007,
        0.0,
        -0.41949000000000003,
        0.4908200000000001,
        0.09496000000000003,
        0.0,
        -0.23366,
        -0.30209,
        0.52918,
        0.0,
        1.82441,
        1.4602899999999999,
        0.6487200000000002,
        1.0
      ],
      "name": "Premier Ball"
    },
    {
      "mesh": 5,
      "name": "Premier Ball"
    },
    {
      "mesh": 6,
      "name": "Premier Ball"
    },
    {
      "children": [
        13
      ],
      "matrix": [
        0.38379,
        0.11875000000000002,
        -0.9157500000000001,
        0.0,
        -0.29559,
        0.9553200000000001,
        0.0,
        0.0,
        0.8748300000000001,
        0.27069,
        0.40174,
        0.0,
        12.248379999999997,
        1.4049999999999998,
        2.90701,
        1.0
      ],
      "name": "Sun"
    },
    {
      "name": "Sun"
    },
    {
      "children": [
        15
      ],
      "matrix": [
        -0.21582,
        -0.07039000000000001,
        0.97389,
        0.0,
        -0.31009000000000003,
        0.95071,
        0.0,
        0.0,
        -0.9258900000000001,
        -0.30199000000000004,
        -0.22701000000000005,
        0.0,
        -6.127139999999999,
        -3.24621,
        -0.04037000000000001,
        1.0
      ],
      "name": "Sun.001"
    },
    {
      "name": "Sun.001"
    },
    {
      "children": [
        17
      ],
      "matrix": [
        -0.21950000000000003,
        0.057920000000000006,
        0.97389,
        0.0,
        0.25512,
        0.96691,
        0.0,
        0.0,
        -0.9416700000000001,
        0.24846000000000004,
        -0.22701000000000005,
        0.0,
        -7.057379999999999,
        3.43991,
        -0.04037000000000001,
        1.0
      ],
      "name": "Sun.002"
    },
    {
      "name": "Sun.002"
    },
    {
      "children": [
        19,
        20,
        21,
        22
      ],
      "matrix": [
        0.26349,
        0.5549700000000001,
        -0.22016000000000002,
        0.0,
        -0.5911200000000001,
        0.27632000000000007,
        -0.010910000000000001,
        0.0,
        0.08394000000000001,
        0.20382,
        0.6142500000000001,
        0.0,
        -0.3900800000000001,
        1.54887,
        0.6542900000000001,
        1.0
      ],
      "name": "Luxuryball"
    },
    {
      "mesh": 7,
      "name": "Luxuryball"
    },
    {
      "mesh": 8,
      "name": "Luxuryball"
    },
    {
      "mesh": 9,
      "name": "Luxuryball"
    },
    {
      "mesh": 10,
      "name": "Luxuryball"
    }
  ],
  "scene": 0,
  "scenes": [
    {
      "name": "Sketchfab_Scene",
      "nodes": [
        0
      ]
    }
  ]
}
